# xmcd
#
# Track frame offsets:
#	150
#	10159
#	19485
#	37933
#	52413
#	62339
#	79719
#	95038
#	106457
#	119702
#	132662
#	149432
#	165794
#	174486
#	186340
#	200575
#
# Disc length: 2961 seconds
#
# Revision: 2
# Processed by: cddbd v1.5.2PL0 Copyright (c) Steve Scherf et al.
# Submitted via: audiograbber 1.83.01
#
DISCID=e70b8f10
DTITLE=Country [deutsch] - Trucker and Country - Musik für unterwegs
DYEAR=1900
DGENRE=deutsch
TTITLE0=Ralf Paulsen - Bonanza [Neufassung]
TTITLE1=Bill Ramsey - Der Tramp [King Of The Road]
TTITLE2=Sven Jenssen - Trucker und Sailor
TTITLE3=Tina Wulf - Koffer voller Träume
TTITLE4=Dieter-Thomas Heck - Das Wilde Leben Im Wilden Westen
TTITLE5=Gudrun Lange und Kactus - In Einer Fremden Stadt
TTITLE6=New Mavericks - Auf eigene Faust
TTITLE7=Isabella Oldman - Trucker-Cowboy-Country Lady
TTITLE8=Regina und Ensemble Sonnwend - Der Trucker Charly
TTITLE9=Trucks aus dem Zillertal - Ein Cowboy muß nicht schön sein
TTITLE10=Tiroler Glücksbringer - Wirklich treu ist nur mein Diesel
TTITLE11=Timmel Truck - Truck durch Südtirol
TTITLE12=Florian Haidt - Was ein Cowboy alles schafft
TTITLE13=Fred Karman und die Starlet Studio Band  - Kein Gold im Blue River
TTITLE14=Orchester Charles Parker - Winnetou Melodie
TTITLE15=Jonny Hill - Ruf Teddybär 1-4
EXTD=
EXTT0=
EXTT1=
EXTT2=
EXTT3=
EXTT4=
EXTT5=
EXTT6=
EXTT7=
EXTT8=
EXTT9=
EXTT10=
EXTT11=
EXTT12=
EXTT13=
EXTT14=
EXTT15=
PLAYORDER=
